<?xml version="1.0" standalone="no"?>
<!DOCTYPE svg PUBLIC "-//W3C//DTD SVG 20010904//EN"
 "http://www.w3.org/TR/2001/REC-SVG-20010904/DTD/svg10.dtd">
<svg version="1.0" xmlns="http://www.w3.org/2000/svg"
 width="140.000000pt" height="140.000000pt" viewBox="0 0 140.000000 140.000000"
 preserveAspectRatio="xMidYMid meet">
<metadata>
Created by potrace 1.14, written by Peter Selinger 2001-2017
</metadata>
<g transform="translate(0.000000,140.000000) scale(0.100000,-0.100000)"
fill="#000000" stroke="none">
<path d="M12 1037 c16 -17 182 -198 206 -224 18 -20 174 -190 227 -247 17 -18
63 -69 103 -113 83 -92 112 -108 176 -99 36 6 52 16 91 59 187 204 242 264
370 403 55 59 107 115 115 124 8 10 35 38 60 64 l44 46 -703 0 c-586 0 -700
-2 -689 -13z"/>
</g>
</svg>
